<svg width="35" height="28" viewBox="0 0 35 28" fill="none" xmlns="http://www.w3.org/2000/svg">
<path d="M11.352 27.72V20.136C10.6693 20.5627 9.976 20.872 9.272 21.064C8.58933 21.2773 7.896 21.384 7.192 21.384C5.18667 21.384 3.58667 20.6693 2.392 19.24C1.21867 17.7893 0.632 15.8373 0.632 13.384C0.632 10.9307 1.21867 8.98933 2.392 7.56C3.58667 6.10933 5.18667 5.384 7.192 5.384C8.83467 5.384 10.4453 5.93867 12.024 7.048L12.344 5.768H15.128V27.72H11.352ZM8.152 17.928C8.68533 17.928 9.21867 17.8533 9.752 17.704C10.2853 17.5547 10.8187 17.3413 11.352 17.064V9.704C10.8187 9.40533 10.2853 9.192 9.752 9.064C9.21867 8.91467 8.68533 8.84 8.152 8.84C6.91467 8.84 5.98667 9.224 5.368 9.992C4.74933 10.7387 4.44 11.8693 4.44 13.384C4.44 14.8987 4.74933 16.04 5.368 16.808C5.98667 17.5547 6.91467 17.928 8.152 17.928ZM19.6105 21V18.344C19.6105 15.8907 20.0585 14.0027 20.9545 12.68C21.8718 11.336 23.3972 10.3547 25.5305 9.736L28.1225 8.968C28.7625 8.776 29.2745 8.52 29.6585 8.2C30.0425 7.85867 30.2345 7.32533 30.2345 6.6C30.2345 5.72533 29.9358 5.07467 29.3385 4.648C28.7412 4.2 27.8772 3.976 26.7465 3.976C24.7198 3.976 22.9812 4.65867 21.5305 6.024L19.5145 3.016C20.5385 2.16267 21.6265 1.52267 22.7785 1.096C23.9305 0.669333 25.2532 0.455999 26.7465 0.455999C29.1358 0.455999 30.9598 0.999999 32.2185 2.088C33.4772 3.15467 34.1065 4.70133 34.1065 6.728C34.1065 8.28533 33.7118 9.53333 32.9225 10.472C32.1545 11.3893 30.9172 12.0933 29.2105 12.584L26.6185 13.352C25.9358 13.544 25.3705 13.7893 24.9225 14.088C24.4958 14.3653 24.1652 14.7707 23.9305 15.304C23.7172 15.8373 23.5785 16.584 23.5145 17.544H34.1065V21H19.6105Z" fill="white"/>
</svg>
